{
	"asset":{
		"generator":"Khronos glTF Blender I/O v4.2.69",
		"version":"2.0"
	},
	"scene":0,
	"scenes":[
		{
			"name":"Scene",
			"nodes":[
				0,
				1,
				2,
				7
			]
		}
	],
	"nodes":[
		{
			"name":"Empty",
			"rotation":[
				0,
				-0.0523359552025795,
				0,
				0.9986295104026794
			],
			"translation":[
				0,
				0,
				0.22242461144924164
			]
		},
		{
			"mesh":0,
			"name":"back",
			"scale":[
				-0.45533597469329834,
				-0.2521111071109772,
				-0.2521111071109772
			],
			"translation":[
				-0.5919669270515442,
				0,
				0
			]
		},
		{
			"mesh":1,
			"name":"front",
			"scale":[
				0.24803531169891357,
				0.24803531169891357,
				0.24803531169891357
			]
		},
		{
			"mesh":2,
			"name":"Icosphere",
			"scale":[
				0.06069738045334816,
				0.06069738045334816,
				0.06069738045334816
			],
			"translation":[
				0.31433600187301636,
				0.1341836154460907,
				-0.08789599686861038
			]
		},
		{
			"mesh":3,
			"name":"Icosphere.001",
			"scale":[
				0.06069738045334816,
				0.06069738045334816,
				0.06069738045334816
			],
			"translation":[
				0.1883566975593567,
				0.1341836154460907,
				-0.16325600445270538
			]
		},
		{
			"mesh":4,
			"name":"Icosphere.002",
			"scale":[
				0.06069738045334816,
				0.06069738045334816,
				0.06069738045334816
			],
			"translation":[
				0.31433600187301636,
				0.1341836154460907,
				0.08789557963609695
			]
		},
		{
			"mesh":5,
			"name":"Icosphere.003",
			"scale":[
				0.06069738045334816,
				0.06069738045334816,
				0.06069738045334816
			],
			"translation":[
				0.1883566975593567,
				0.1341836154460907,
				0.16325640678405762
			]
		},
		{
			"children":[
				3,
				4,
				5,
				6
			],
			"name":"Eyes"
		}
	],
	"materials":[
		{
			"doubleSided":true,
			"name":"Material.001",
			"pbrMetallicRoughness":{
				"baseColorFactor":[
					0.04023214429616928,
					0.010296055115759373,
					0,
					1
				],
				"metallicFactor":0,
				"roughnessFactor":0.5
			}
		},
		{
			"doubleSided":true,
			"name":"Material.002",
			"pbrMetallicRoughness":{
				"baseColorFactor":[
					0,
					0,
					0,
					1
				],
				"metallicFactor":0,
				"roughnessFactor":0.5
			}
		},
		{
			"doubleSided":true,
			"name":"Material.003",
			"pbrMetallicRoughness":{
				"baseColorFactor":[
					0,
					0,
					0,
					1
				],
				"metallicFactor":0,
				"roughnessFactor":0.5
			}
		},
		{
			"doubleSided":true,
			"name":"Material.005",
			"pbrMetallicRoughness":{
				"baseColorFactor":[
					0,
					0,
					0,
					1
				],
				"metallicFactor":0,
				"roughnessFactor":0.5
			}
		},
		{
			"doubleSided":true,
			"name":"Material.006",
			"pbrMetallicRoughness":{
				"baseColorFactor":[
					0,
					0,
					0,
					1
				],
				"metallicFactor":0,
				"roughnessFactor":0.5
			}
		}
	],
	"meshes":[
		{
			"name":"Icosphere.003",
			"primitives":[
				{
					"attributes":{
						"POSITION":0,
						"NORMAL":1,
						"TEXCOORD_0":2
					},
					"indices":3,
					"material":0
				}
			]
		},
		{
			"name":"Icosphere.004",
			"primitives":[
				{
					"attributes":{
						"POSITION":4,
						"NORMAL":5,
						"TEXCOORD_0":6
					},
					"indices":7,
					"material":0
				}
			]
		},
		{
			"name":"Icosphere.007",
			"primitives":[
				{
					"attributes":{
						"POSITION":8,
						"NORMAL":9,
						"TEXCOORD_0":10
					},
					"indices":11,
					"material":1
				}
			]
		},
		{
			"name":"Icosphere.008",
			"primitives":[
				{
					"attributes":{
						"POSITION":12,
						"NORMAL":13,
						"TEXCOORD_0":14
					},
					"indices":11,
					"material":2
				}
			]
		},
		{
			"name":"Icosphere.010",
			"primitives":[
				{
					"attributes":{
						"POSITION":15,
						"NORMAL":16,
						"TEXCOORD_0":17
					},
					"indices":11,
					"material":3
				}
			]
		},
		{
			"name":"Icosphere.011",
			"primitives":[
				{
					"attributes":{
						"POSITION":18,
						"NORMAL":19,
						"TEXCOORD_0":20
					},
					"indices":11,
					"material":4
				}
			]
		}
	],
	"accessors":[
		{
			"bufferView":0,
			"componentType":5126,
			"count":960,
			"max":[
				1.1149697303771973,
				1,
				0.9999999403953552
			],
			"min":[
				-0.9999999403953552,
				-1,
				-0.9999999403953552
			],
			"type":"VEC3"
		},
		{
			"bufferView":1,
			"componentType":5126,
			"count":960,
			"type":"VEC3"
		},
		{
			"bufferView":2,
			"componentType":5126,
			"count":960,
			"type":"VEC2"
		},
		{
			"bufferView":3,
			"componentType":5123,
			"count":960,
			"type":"SCALAR"
		},
		{
			"bufferView":4,
			"componentType":5126,
			"count":2358,
			"max":[
				3.1475462913513184,
				1,
				4.228994846343994
			],
			"min":[
				-4.607536792755127,
				-1.8887288570404053,
				-4.228994846343994
			],
			"type":"VEC3"
		},
		{
			"bufferView":5,
			"componentType":5126,
			"count":2358,
			"type":"VEC3"
		},
		{
			"bufferView":6,
			"componentType":5126,
			"count":2358,
			"type":"VEC2"
		},
		{
			"bufferView":7,
			"componentType":5123,
			"count":2676,
			"type":"SCALAR"
		},
		{
			"bufferView":8,
			"componentType":5126,
			"count":60,
			"max":[
				0.8944249749183655,
				1,
				0.8506399989128113
			],
			"min":[
				-0.8944249749183655,
				-1,
				-0.8506399989128113
			],
			"type":"VEC3"
		},
		{
			"bufferView":9,
			"componentType":5126,
			"count":60,
			"type":"VEC3"
		},
		{
			"bufferView":10,
			"componentType":5126,
			"count":60,
			"type":"VEC2"
		},
		{
			"bufferView":11,
			"componentType":5123,
			"count":60,
			"type":"SCALAR"
		},
		{
			"bufferView":12,
			"componentType":5126,
			"count":60,
			"max":[
				0.8944249749183655,
				1,
				0.8506399989128113
			],
			"min":[
				-0.8944249749183655,
				-1,
				-0.8506399989128113
			],
			"type":"VEC3"
		},
		{
			"bufferView":13,
			"componentType":5126,
			"count":60,
			"type":"VEC3"
		},
		{
			"bufferView":14,
			"componentType":5126,
			"count":60,
			"type":"VEC2"
		},
		{
			"bufferView":15,
			"componentType":5126,
			"count":60,
			"max":[
				0.8944249749183655,
				1,
				0.8506399989128113
			],
			"min":[
				-0.8944249749183655,
				-1,
				-0.8506399989128113
			],
			"type":"VEC3"
		},
		{
			"bufferView":16,
			"componentType":5126,
			"count":60,
			"type":"VEC3"
		},
		{
			"bufferView":17,
			"componentType":5126,
			"count":60,
			"type":"VEC2"
		},
		{
			"bufferView":18,
			"componentType":5126,
			"count":60,
			"max":[
				0.8944249749183655,
				1,
				0.8506399989128113
			],
			"min":[
				-0.8944249749183655,
				-1,
				-0.8506399989128113
			],
			"type":"VEC3"
		},
		{
			"bufferView":19,
			"componentType":5126,
			"count":60,
			"type":"VEC3"
		},
		{
			"bufferView":20,
			"componentType":5126,
			"count":60,
			"type":"VEC2"
		}
	],
	"bufferViews":[
		{
			"buffer":0,
			"byteLength":11520,
			"byteOffset":0,
			"target":34962
		},
		{
			"buffer":0,
			"byteLength":11520,
			"byteOffset":11520,
			"target":34962
		},
		{
			"buffer":0,
			"byteLength":7680,
			"byteOffset":23040,
			"target":34962
		},
		{
			"buffer":0,
			"byteLength":1920,
			"byteOffset":30720,
			"target":34963
		},
		{
			"buffer":0,
			"byteLength":28296,
			"byteOffset":32640,
			"target":34962
		},
		{
			"buffer":0,
			"byteLength":28296,
			"byteOffset":60936,
			"target":34962
		},
		{
			"buffer":0,
			"byteLength":18864,
			"byteOffset":89232,
			"target":34962
		},
		{
			"buffer":0,
			"byteLength":5352,
			"byteOffset":108096,
			"target":34963
		},
		{
			"buffer":0,
			"byteLength":720,
			"byteOffset":113448,
			"target":34962
		},
		{
			"buffer":0,
			"byteLength":720,
			"byteOffset":114168,
			"target":34962
		},
		{
			"buffer":0,
			"byteLength":480,
			"byteOffset":114888,
			"target":34962
		},
		{
			"buffer":0,
			"byteLength":120,
			"byteOffset":115368,
			"target":34963
		},
		{
			"buffer":0,
			"byteLength":720,
			"byteOffset":115488,
			"target":34962
		},
		{
			"buffer":0,
			"byteLength":720,
			"byteOffset":116208,
			"target":34962
		},
		{
			"buffer":0,
			"byteLength":480,
			"byteOffset":116928,
			"target":34962
		},
		{
			"buffer":0,
			"byteLength":720,
			"byteOffset":117408,
			"target":34962
		},
		{
			"buffer":0,
			"byteLength":720,
			"byteOffset":118128,
			"target":34962
		},
		{
			"buffer":0,
			"byteLength":480,
			"byteOffset":118848,
			"target":34962
		},
		{
			"buffer":0,
			"byteLength":720,
			"byteOffset":119328,
			"target":34962
		},
		{
			"buffer":0,
			"byteLength":720,
			"byteOffset":120048,
			"target":34962
		},
		{
			"buffer":0,
			"byteLength":480,
			"byteOffset":120768,
			"target":34962
		}
	],
	"buffers":[
		{
			"byteLength":121248,
			"uri":"spider.bin"
		}
	]
}
